<svg xmlns="http://www.w3.org/2000/svg" xmlns:xlink="http://www.w3.org/1999/xlink" viewBox="160 0 190 200">
	<g>
		<path d="M327.34 150.97l-55.64-31.06h67.87c.04 0 .07.01.11.01-.56 3.09-1.23 6.16-2.13 9.17-2.35 7.88-5.86 15.19-10.21 21.88m-23.03 23.76l-43.39-26.53v-25.88L323.04 157a87.027 87.027 0 0 1-18.73 17.73M188.83 158.7l64.74-36.14v26.01l-43.64 28.64c-8-5.01-15.15-11.23-21.1-18.51m32.19-147.38l-30.74 30.74-20.88-20.88-.01-9.86h51.63zm120.1 71.82c-4.21-17.44-12.28-33.44-23.8-46.66-10.02-11.49-21.94-19.91-34.9-25.17h58.69v71.83zM248.2 99.97c.88.12 1.74.27 2.64.27 10.16 0 18.5-7.61 19.82-17.42 1.48 1.95 2.94 3.91 4.55 5.76 9.26 10.62 20.12 18.67 31.93 23.98h-46.83l.23-.23-12.34-12.36zm-4.99 19.94l-58.83 32.84c-6.63-9.71-11.27-20.85-13.45-32.84h72.28zm-45.77-60.3c-1.14-.14-2.29-.23-3.47-.23-10.36 0-19.44 5.51-24.52 13.75l-.03-41.55 28.02 28.03zm3.44-6.96l-5.4-5.4 4.54-4.54c-.08.88-.26 1.72-.26 2.62 0 2.55.46 4.97 1.12 7.32m48.52-41.31l-1.39-.02c-.09 5.87.33 11.63 1.04 17.32-5.04-6.55-12.87-10.85-21.76-10.85-.9 0-1.75.18-2.62.26l6.74-6.74h17.99v.03zm7.92 1.37c20.45 1.73 39.66 11.64 54.45 28.61 14.83 17.01 23.57 38.98 25.14 62.69l-79.59-91.3zm-1.63 9.31l78.8 90.38c-20.21-1.77-39.11-11.89-53.73-28.65-14.63-16.78-23.34-38.39-25.07-61.73m-4.85 38.03c-.13 0-.25.03-.38.03 1.7-2.66 2.96-5.6 3.67-8.77 1.15 3.45 2.44 6.83 3.91 10.12-2.24-.86-4.66-1.38-7.2-1.38M237.5 80.14c0-7.35 5.99-13.34 13.34-13.34 7.36 0 13.35 5.99 13.35 13.34 0 7.36-5.99 13.34-13.35 13.34-7.35 0-13.34-5.98-13.34-13.34m-17.53-8.4c2.35.66 4.77 1.12 7.33 1.12 1.72 0 3.39-.21 5.02-.51a20.03 20.03 0 0 0-1.57 7.79c0 .91.15 1.77.27 2.65l-11.05-11.05zm2.83 16.47c0-1.18-.09-2.33-.23-3.48l27.82 27.82h-41.04c8.06-5.11 13.45-14.09 13.45-24.34m-6.75 0c0 12.17-9.9 22.07-22.08 22.07-12.17 0-22.08-9.9-22.08-22.07 0-12.18 9.91-22.08 22.08-22.08 12.17.01 22.08 9.91 22.08 22.08m11.25-63.67c11.46 0 20.78 9.32 20.78 20.78s-9.32 20.79-20.78 20.79-20.79-9.33-20.79-20.79c0-11.46 9.33-20.78 20.79-20.78m-57.83 79.95v-1.16c2.31 3.73 5.43 6.88 9.13 9.23h-8.72c-.25-2.66-.41-5.35-.41-8.07m91.45 52.32l36.45 22.29c-11.02 6.24-23.43 10.11-36.45 10.98v-33.27zm-7.36 33.42a85.243 85.243 0 0 1-36.42-8.97l36.42-23.9v32.87zM162.03 3.96l.08 100.53c0 51.37 41.8 93.18 93.18 93.18 40.89 0 77.61-27.34 89.3-66.48a93.17 93.17 0 0 0 3.89-26.69V3.96H162.03z" clip-path="url(#SVGID_6_)" fill="#949185" />
	</g>
</svg>
