<svg xmlns="http://www.w3.org/2000/svg" xmlns:xlink="http://www.w3.org/1999/xlink" width="553.719" height="2440.753" viewBox="0 0 553.719 2440.753">
  <defs>
    <clipPath id="clip-path">
      <rect id="Rectangle_77" data-name="Rectangle 77" width="553.719" height="2440.753" transform="translate(479.691 1204.04)" fill="none" stroke="#a0a0a0" stroke-miterlimit="10" stroke-width="0.542"/>
    </clipPath>
  </defs>
  <g id="Group_231" data-name="Group 231" transform="translate(-479.691 -1204.04)" clip-path="url(#clip-path)">
    <path id="Path_330" data-name="Path 330" d="M942.043,2067.855s-3.423,27.381,0,34.91S944.1,2117.6,957.787,2129s19.851,22.361,40.386,23.045,34.91,3.423,49.97-7.529,28.065-29.435,31.488-41.071,0-30.119,0-30.119-5.477-30.8-24.643-36.964-30.119-13.006-56.815-8.214S947.519,2059.55,942.043,2067.855Z" fill="#ffc870"/>
    <path id="Path_331" data-name="Path 331" d="M898.981,2051.062s6.4-1.731,7.809-3.086,3.155-1.725,4.616-5.493,3.421-5.978,1.939-10.177-2.015-7.338-5.664-9.405a22.425,22.425,0,0,0-11.7-2.715c-2.876.339-6.738,2.663-6.738,2.663s-6.454,3.826-6.306,8.234-.51,7.22,2.688,12.176S896.687,2050.693,898.981,2051.062Z" fill="#ea6d30"/>
    <path id="Intersection_2" data-name="Intersection 2" d="M47.808,206.5c-21.1-19.6-19.232-32.8-25.408-46.388-3.227-7.1-3.316-23.29-2.557-38.059A84.246,84.246,0,0,1,44.659,66.539c20.769-20.581,52.531-45,86.59-51.116A177.329,177.329,0,0,1,165.5,12.317V206.5Z" transform="translate(867 2727)" fill="#7d8a49" stroke="rgba(0,0,0,0)" stroke-miterlimit="10" stroke-width="1"/>
  </g>
</svg>
