<?xml version="1.0" encoding="utf-8"?>
<!-- Generator: Adobe Illustrator 23.0.2, SVG Export Plug-In . SVG Version: 6.00 Build 0)  -->
<svg version="1.1" id="Layer_11" xmlns="http://www.w3.org/2000/svg" xmlns:xlink="http://www.w3.org/1999/xlink" x="0px" y="0px"
	 viewBox="0 0 566.13 337.59" style="enable-background:new 0 0 566.13 337.59;" xml:space="preserve">
<style type="text/css">
	.st0{clip-path:url(#SVGID_4_);}
	.st1{fill-rule:evenodd;clip-rule:evenodd;fill:#ED6E24;}
	.st2{clip-path:url(#SVGID_5_);}
	.st3{fill-rule:evenodd;clip-rule:evenodd;fill:#DBAF81;}
	.st4{clip-path:url(#SVGID_6_);}
	.st5{fill-rule:evenodd;clip-rule:evenodd;fill:#F4ADBA;}
	.st6{clip-path:url(#SVGID_8_);}
	.st7{fill-rule:evenodd;clip-rule:evenodd;fill:#7E8C45;}
</style>
<defs>
	
		<rect id="SVGID_3_" x="94.94" y="-94.94" transform="matrix(-1.836970e-16 1 -1 -1.836970e-16 471.1913 -94.9359)" width="376.26" height="566.13"/>
</defs>
<clipPath id="SVGID_4_">
	<use xlink:href="#SVGID_3_"  style="overflow:visible;"/>
</clipPath>
<g id="Layer_8" class="st0">
	<g id="Layer_2">
		<g>
			
				<rect x="173.33" y="-181.56" transform="matrix(-1.836970e-16 1 -1 -1.836970e-16 549.5824 -181.557)" class="st1" width="384.49" height="731.14"/>
		</g>
	</g>
	<g id="Layer_3">
		<defs>
			<path id="SVGID_2_" d="M504.85,284.83c-6.16-12.09-10.2-24.09-16.51-35.34c-28.12-4.48-35.94,25.43-60.51,25.7
				c-0.06-3.17-0.12-6.34-0.18-9.5c9.28-9.18,21.25-19.35,32.78-25.97c3.94-2.26,9.18-4.51,13.36-5.8c2.63-0.31,5.27-0.63,7.9-0.94
				c2.07-2.15,4.14-4.3,6.22-6.46c0.62-7.09,0.45-17.02-1.23-22.95c-0.06-3.43-0.13-6.86-0.19-10.29
				c-1.84-6.53-4.83-13.48-5.16-21.29c-12.36,0.91-21.83,11.89-30.57,17.21c-23.22,14.15-43.68,26.73-72.19,36.22
				c-6.44,2.14-35.82,11.74-41.85,7.13c-0.53-0.25-1.07-0.51-1.6-0.76c0.67-15.55,26.46-13.19,26.31-32.98
				c-2.69-2.59-5.38-5.18-8.07-7.77c-14.85-1.42-26.02,2.9-37.1,7.04c-7.66,2.86-16.16,2.4-22.05,6.76
				c-5.35,3.95-7.17,11.08-10.77,16.84c-6.38,10.19-14.75,20.62-23.22,28.96c-7.6,7.49-19.61,14.14-28.94,19.56
				c-2.78,1.61-5.34,1.63-7.05,4.09c-4.95,7.09-7.4,24.01-9.66,33.45c-4.58,19.11,11.5,40.06,15.27,53.58
				c3.62,12.96-3.58,21.29-6.6,27.85c-1.26,2.72-1.66,13.93-2.06,16.67c26.39-0.5,52.8-1,79.19-1.5c-1.69-5.51-5.55-6.6-8.91-10.13
				c-8.35-8.79-14.26-22.03-24.31-28.85c-0.32-3.16-0.65-6.33-0.97-9.49c13.15-13.09,26.33-39.69,32.94-59.25
				c1.98-5.84,0.26-25.35,3.4-29.38c5.77-4.56,28.36-3.92,35.62-1.47c7.22,2.44,18.08,8.1,22.44,13.83
				c2.73,3.58,4.52,7.57,8.11,10.14c7.8,5.57,19.55,9.86,24.12,18.56c3.7,7.05-0.61,30.2-3.31,34.13c0.42,6.53,3.43,5.53,4.93,9.41
				c2.11,5.45,0.25,9.78,2.65,14.21c2.69,2.85,5.39,5.71,8.08,8.56c19.83,4.11,23.84-2.64,37.83-10.22
				c29.11-15.79,49.55-33.97,69.4-58.35C511.98,295.87,508.2,291.4,504.85,284.83z M336.03,322.09c-4.48-2.23-11.03-2.38-15.15-5.26
				c-13.56,0.52-12.46,9.65-17.88,17.77c-3.4,5.09-8.87,10.16-13.19,14.51c2.45,11.73,23.95,9.05,38.19,8.78
				c5.7-0.11,14.17,0.76,17.39-1.91c8.87-0.05,19.99,0.54,25.3-2.86c-0.05-2.9-0.11-5.81-0.16-8.71
				C360.82,335.45,348.37,328.23,336.03,322.09z M207.22,296.81c-0.96-2.22-0.13-1.49-2.42-2.33c-4.38-1.67-16.45,7.28-20.41,9.89
				c-15.47,10.2-40.68,27.8-40.2,52.25c22.62-0.52,47.27-3.1,68.84-4.47c0.26-0.27,0.52-0.54,0.78-0.81
				c-0.93-6.86-7.81-14.65-9.92-21.99C200.6,317.96,209.86,301.98,207.22,296.81z"/>
		</defs>
		<clipPath id="SVGID_5_">
			<use xlink:href="#SVGID_2_"  style="overflow:visible;"/>
		</clipPath>
		<g class="st2">
			
				<rect x="119.87" y="-110.44" transform="matrix(-0.0189 -0.9998 0.9998 -0.0189 168.3986 564.0938)" class="st3" width="482.18" height="619.73"/>
		</g>
	</g>
	<g id="Layer_4">
		<defs>
			<path id="SVGID_1_" d="M382.73-10.4c-33.53-0.59-67.07-1.18-100.59-1.76c-3.37,2.18-4.17,27.75-2.33,33.21
				c8.84,26.23,44.37,48.07,78.22,30.25c3.26-3.15,6.53-6.3,9.79-9.45C383.13,27.06,384.76,17.14,382.73-10.4z M321.61,82.16
				c-3.63-1.95-9.69-3.62-13.04-4.6c-6.81-1.99-17.39,2.01-22.73-1.27c-1.38-2.37-0.39-6.96-1.58-9.65
				c-4.06-9.17-11.08-19.99-18.8-25.7c-23.69-17.53-61.14-8.39-75.44,10.93c-29.91,40.41,6.53,90.21,53.65,84.06
				c-0.01,9.47,3.88,14.55,7.52,20.26c5.13,8.04,12.09,16.88,20.63,21.36c26.67,14.01,60.31-2.42,70.35-19.77
				C359.39,127.99,343.26,93.77,321.61,82.16z M206.89,137.89c-6.24-3.08-21.67-0.57-27.05-3.97c-3.44-5.83-2.12-14.18-4.9-20.21
				c-4.46-9.7-12.31-21.29-20.52-27.48c-6.97-5.26-17.14-10.89-26.01-13.58c-39.53-11.99-74.63,13.88-86.4,36.99
				c-16.51,32.4-0.78,72.26,19.46,87.84c5.66,4.35,11.47,6.42,18.2,9.94c11.92,6.25,41.65,11.13,53.36,0.94
				c7.65,1.03,6.94,4.96,10.33,9.81c4.82,6.9,14.48,15.03,22.42,18.77c9.21,4.33,27.69,3.74,36.74,0.64
				c23.45-8.04,38.44-23.35,38.59-55.32c-4.21-5.83-4.18-15.76-7.49-22.01C228.74,151.01,216.48,142.63,206.89,137.89z"/>
		</defs>
		<clipPath id="SVGID_6_">
			<use xlink:href="#SVGID_1_"  style="overflow:visible;"/>
		</clipPath>
		<g class="st4">
			
				<rect x="91.18" y="-139.82" transform="matrix(-0.0175 0.9998 -0.9998 -0.0175 566.1501 -151.4339)" class="st5" width="532.6" height="684.53"/>
		</g>
	</g>
	<g id="Layer_6">
		<defs>
			<path id="SVGID_7_" d="M566.13-8.51c0,27.86,0,55.74,0,83.6c-25.63,15.95-52.79,33.16-81.3,46.02
				c-11.03,4.97-21.76,9.16-32.21,13.81c-2.3,0.51-4.6,1.02-6.9,1.53c-5.74,3.03-9.18,9.58-13.81,13.81
				c-3.53,3.23-8.71,4.45-12.27,7.67c-5.3,4.79-6.26,9.1-16.11,9.97c0-0.51,0-1.02,0-1.53c6.66-9.42,6.14-31.35,6.14-47.55
				c0-31.76-10.91-65.42-3.07-95.1c2.33-8.82,4.93-29.21,11.5-32.21c22.75,0,45.51,0,68.26,0c-0.36,7.28-2.94,15.11-4.6,21.48
				c-4.63,17.81-5.89,35.07-11.5,50.62c-3.07,13.29-6.14,26.59-9.2,39.88c-3.36,9.29-9.14,18.32-11.5,27.61c0.51,0,1.02,0,1.53,0
				c3.36-2.9,8.18-3.95,11.5-6.9c6.66-5.91,14.07-15.01,18.41-23.01c12.97-23.93,19.62-53.91,29.14-80.53
				c3.65-10.21,4.25-20.72,9.2-29.14C534.94-8.51,550.53-8.51,566.13-8.51z"/>
		</defs>
		<clipPath id="SVGID_8_">
			<use xlink:href="#SVGID_7_"  style="overflow:visible;"/>
		</clipPath>
		<g id="Layer_7" class="st6">
			<g>
				
					<rect x="153.92" y="-228.26" transform="matrix(-1.836970e-16 1 -1 -1.836970e-16 459.1763 -315.5836)" class="st7" width="466.92" height="600.11"/>
			</g>
		</g>
	</g>
	<g id="Layer_9">
	</g>
</g>
</svg>
