<svg version="1.1" id="Layer_1" xmlns="http://www.w3.org/2000/svg" x="0" y="0" viewBox="0 0 760 136" xml:space="preserve"><style>.st0{fill:#8b8a7d}.st4{fill:none;stroke:#8b8a7d;stroke-width:.2389;stroke-miterlimit:10}</style><text transform="translate(168.875 115.484)" class="st0" letter-spacing="21" font-size="134.518" font-family="DINEngschrift">DAILY JOY</text><path class="st0" d="M60.26 116.25c-25.71 0-46.64-20.93-46.64-46.64l-.05-50.31h93.34v50.31c0 4.56-.65 9.06-1.94 13.36-5.86 19.6-24.23 33.28-44.71 33.28zm-42.54-92.8l.05 46.17c0 23.43 19.06 42.49 42.49 42.49 18.66 0 35.41-12.46 40.74-30.32 1.18-3.92 1.77-8.01 1.77-12.17V23.45H17.72z"/><path class="st0" d="M46.32 54.25c-7.77 0-14.1-6.33-14.1-14.11 0-7.77 6.33-14.1 14.1-14.1 7.78 0 14.11 6.33 14.11 14.1 0 7.79-6.33 14.11-14.11 14.11zm0-24.06c-5.49 0-9.95 4.46-9.95 9.95s4.46 9.97 9.95 9.97 9.97-4.47 9.97-9.97-4.48-9.95-9.97-9.95z"/><path class="st0" d="M29.72 76.26c-8.13 0-14.75-6.62-14.75-14.75s6.62-14.75 14.75-14.75 14.75 6.62 14.75 14.75-6.62 14.75-14.75 14.75zm0-25.36c-5.86 0-10.61 4.75-10.61 10.61s4.75 10.61 10.61 10.61 10.61-4.75 10.61-10.61S35.58 50.9 29.72 50.9zM103.2 77.59c-12.56 0-24.32-5.58-33.19-15.75C60.99 51.51 56.16 37.79 56.4 23.2l4.15.07c-.22 13.55 4.26 26.28 12.6 35.85 8.07 9.25 18.72 14.32 30.07 14.32.27 0 .53 0 .79-.01l.1 4.15c-.33 0-.62.01-.91.01z"/><path class="st0" d="M104.95 74.22l-4.15-.07c.22-13.55-4.24-26.28-12.58-35.85-8.07-9.25-18.73-14.32-30.08-14.32-.27 0-.53 0-.79.01l-.1-4.15c.3 0 .59-.01.89-.01 12.57 0 24.33 5.58 33.21 15.75 9 10.34 13.83 24.06 13.6 38.64z"/><path class="st0" d="M14.8 73.38h89.92v4.15H14.8zM58.05 67.88c-5.73 0-10.4-4.67-10.4-10.4 0-5.72 4.67-10.39 10.4-10.39 5.72 0 10.39 4.67 10.39 10.39 0 5.73-4.67 10.4-10.39 10.4zm0-16.65c-3.46 0-6.26 2.8-6.26 6.24 0 3.46 2.8 6.26 6.26 6.26 3.44 0 6.24-2.8 6.24-6.26.01-3.43-2.79-6.24-6.24-6.24z"/><path class="st0" d="M102.18 76.77L57.12 25.08l3.13-2.71 45.06 51.68z"/><path transform="rotate(-45.009 38.763 51.98)" class="st0" d="M36.69 19.7h4.15v64.56h-4.15z"/><path transform="rotate(-45.001 38.315 30.668)" class="st0" d="M24.93 28.59H51.7v4.15H24.93z"/><path class="st0" d="M59.16 76.73h4.15v37.35h-4.15z"/><path transform="rotate(-33.322 49.336 100.347)" class="st0" d="M34.8 98.27h29.08v4.15H34.8z"/><path transform="rotate(-29.12 42.96 85.703)" class="st0" d="M22.08 83.63h41.76v4.14H22.08z"/><path class="st0" d="M83.96 108.74l-23.85-14.6 2.16-3.54 23.85 14.6z"/><path transform="rotate(-60.83 79.73 85.694)" class="st0" d="M77.66 64.81h4.14v41.76h-4.14z"/></svg>