<svg id="Group_371" data-name="Group 371" xmlns="http://www.w3.org/2000/svg" width="84.663" height="84.666" viewBox="0 0 84.663 84.666">
  <path id="Path_483" data-name="Path 483" d="M1680.807,2062.505a42.333,42.333,0,1,0,42.333,42.333A42.38,42.38,0,0,0,1680.807,2062.505Zm0,80.674a38.3,38.3,0,0,1-31.5-60.137l16.644,10.353a14.59,14.59,0,0,0,14.164,15.4v5.053c-.173-.18-.354-.361-.554-.561a14.441,14.441,0,0,0-10.41-4.327,6.028,6.028,0,0,0-.678.06,6.712,6.712,0,0,1-.852.079,2.147,2.147,0,0,0-1.666,1.693,14.68,14.68,0,0,0,14.16,16.229v9.52a1.889,1.889,0,0,0,3.773.129v-9.517a14.867,14.867,0,0,0,9.969-4.319,14.628,14.628,0,0,0,4.153-9.5l16.282,10.131A38.359,38.359,0,0,1,1680.807,2143.18Zm13.463-30.434a10.915,10.915,0,0,1-3.151,7.245,9.929,9.929,0,0,1-7.225,3.15,11.467,11.467,0,0,1,3.14-7.251A10.924,10.924,0,0,1,1694.27,2112.746Zm-10.376-7.7a11.477,11.477,0,0,1,3.14-7.251,4.242,4.242,0,1,1,4.085,4.1A9.929,9.929,0,0,1,1683.894,2105.042ZM1682,2089.231a10.955,10.955,0,0,1-2.838-7.36A11.376,11.376,0,0,1,1682,2074.4a11.372,11.372,0,0,1,2.834,7.471A10.968,10.968,0,0,1,1682,2089.231Zm-12.271,5.549a10.746,10.746,0,1,1,3.143,7.236A10.9,10.9,0,0,1,1669.73,2094.78Zm10.375,28.474a10.738,10.738,0,1,1-3.14-7.237A10.9,10.9,0,0,1,1680.106,2123.254Zm4.384-9.872a4.2,4.2,0,0,0-.6.547v-5a14.777,14.777,0,0,0,5.186-1.146l2.661,1.658A14.258,14.258,0,0,0,1684.49,2113.382Zm8.367-7.948c.332-.279.693-.52,1-.825a14.855,14.855,0,0,0,4.187-11.94,2.111,2.111,0,0,0-1.605-1.647,5.211,5.211,0,0,0-1.583-.155,14.388,14.388,0,0,0-10.365,4.285,4.607,4.607,0,0,0-.6.546v-3.271a14.833,14.833,0,0,0-.705-22.324,2.013,2.013,0,0,0-2.382.015,15,15,0,0,0-5.409,11.488,14.7,14.7,0,0,0,4.723,10.821v3.2c-.173-.181-.354-.362-.554-.562a14.435,14.435,0,0,0-10.312-4.315l-17.473-10.874a38.309,38.309,0,0,1,64.294,40Z" transform="translate(-1638.478 -2062.505)" fill="#f1ede4"/>
</svg>
