<svg xmlns="http://www.w3.org/2000/svg" width="104.26" height="77.771" viewBox="0 0 104.26 77.771">
  <path id="Path_488" data-name="Path 488" d="M1828.186,2066.233c-17.272,0-32.33,15.177-41.918,27.909l-.739.976v-7.2c3.935-15.569,15.98-20.05,16.681-20.3l-2.125-4.12a33.624,33.624,0,0,0-16.161,15.932l-.369.75-.366-.75a33.566,33.566,0,0,0-16.233-15.961l-2.129,4.127.169.1c-.023-.027.057.011.177.072a29.921,29.921,0,0,1,15.962,20.051l.015.1V2095l-.739-1.006c-7.632-10.368-23.224-27.766-41.918-27.766-3.456,0-7.176,2.381-7.176,7.606,0,2.4,1.319,4.56,3.181,7.356l.335.554a21.649,21.649,0,0,1,2.978,6.31c.731,4.628,2.929,12.852,5.333,15.856.98,1.18,2.375,2.023,4.806,2.906l.6.218-.457.456a17.552,17.552,0,0,0-5.513,12.924c0,11.458,18.011,20.827,23.857,20.827,3.867,0,8.56-4.888,13.941-14.525l3.083-5.3,2.838,5.307c5.382,9.629,10.07,14.517,13.938,14.517,5.842,0,23.857-9.369,23.857-20.827a18.671,18.671,0,0,0-5.311-12.936l-.445-.482.629-.188a9.927,9.927,0,0,0,4.787-2.9c2.4-3,4.6-11.227,5.326-15.833a19.144,19.144,0,0,1,3.316-6.889c1.858-2.789,3.177-4.952,3.177-7.349C1835.362,2068.23,1831.461,2066.233,1828.186,2066.233Zm-81.567,34.727c-1.232-1.493-3.381-7.625-4.414-13.617a26.054,26.054,0,0,0-3.844-8.514l-.312-.5c-1.048-1.67-2.133-3.393-2.133-4.488,0-1.994.867-3.008,2.578-3.008,22.674,0,41.971,31.727,42.164,32.047l.347.573-1.172.079c-3.441.234-9.2.619-16.425.619C1750.753,2103.934,1747.455,2102.063,1746.618,2100.959Zm34.493,13.779c-4.79,10.58-11.83,21.905-14.672,21.905-3.656,0-19.259-7.484-19.259-16.225a14.1,14.1,0,0,1,7.361-12.272l.109-.06.125.011c2.732.226,5.465.43,8.849.43,6.9,0,12.449-.351,16.12-.588l1.406-.087Zm38.387,5.68c0,8.937-15.487,16.225-19.259,16.225-2.846,0-9.882-11.325-14.673-21.905l-.038-.169v-6.716l1.4.087c3.671.237,9.215.588,16.123.588,3.385,0,6.118-.2,8.85-.43l.136-.015.113.075C1816.89,2111.113,1819.5,2115.47,1819.5,2120.419Zm9.045-41.957-.223.358c-.222.377-.448.758-.682,1.143-1.38,2.3-2.8,4.669-3.162,7.364-1.078,6.252-3.034,12.25-4.451,13.667-.8,1.07-4.116,2.936-16.972,2.936-7.273,0-13.048-.388-16.5-.622l-1.112-.075.362-.581c2.05-3.278,20.646-32.04,42.163-32.04,1.711,0,2.574,1.014,2.574,3.012C1830.768,2074.917,1829.637,2076.722,1828.544,2078.462Z" transform="translate(-1731.316 -2063.474)" fill="#f1ede4"/>
</svg>
