<svg id="Group_367" data-name="Group 367" xmlns="http://www.w3.org/2000/svg" width="123.857" height="86.871" viewBox="0 0 123.857 86.871">
  <path id="Path_481" data-name="Path 481" d="M1947,2097.515l-30.909-26.993a7.383,7.383,0,0,0-4.907-1.8h-13.1l-.931.983a11.326,11.326,0,0,1-7.289,10.624,9.334,9.334,0,0,1-.893.276,9.829,9.829,0,0,1-.969.282,10.387,10.387,0,0,1-2.133.218l-.068,0-.06,0a10.255,10.255,0,0,1-1.934-.2,10.98,10.98,0,0,1-1.225-.316c-.132-.042-.268-.079-.4-.124a11.318,11.318,0,0,1-7.738-10.632l-1.062-1.115h-12.965a7.4,7.4,0,0,0-4.911,1.8l-.565.489a14.357,14.357,0,0,1-2.382-6.689,2.125,2.125,0,0,0-4.233,0,14.5,14.5,0,0,1-13.127,13.127,2.123,2.123,0,0,0,0,4.229h0a14.473,14.473,0,0,1,5.544,1.711l-16.146,14.13a2.126,2.126,0,0,0-.316,2.853l14.394,19.7a2.126,2.126,0,0,0,2.966.464l.072-.057,11.318-9.027-.351,37.81h4.247l.4-42.239a2.123,2.123,0,0,0-3.448-1.692l-13.079,10.44-11.937-16.338,15.378-13.456a14.451,14.451,0,0,1,4.089,8.827,2.125,2.125,0,0,0,4.233,0,14.5,14.5,0,0,1,13.123-13.127,2.123,2.123,0,0,0,0-4.229,14.387,14.387,0,0,1-7.885-3.3l.505-.433a3.166,3.166,0,0,1,2.114-.747h10.847a14.783,14.783,0,0,0,24.92,8.179,14.131,14.131,0,0,0,4.157-8.179h10.843a3.152,3.152,0,0,1,2.111.747l29.45,25.738-11.94,16.331-13.079-10.448a2.122,2.122,0,0,0-3.448,1.67l.011,1.564.23,40.689h4.078v-32.005l-.042-5.827,11.33,9.045a2.124,2.124,0,0,0,2.985-.331l.057-.075,14.39-19.7A2.124,2.124,0,0,0,1947,2097.515Zm-104.31-17.951a18.765,18.765,0,0,0,7.749-7.753,18.79,18.79,0,0,0,7.752,7.753,18.787,18.787,0,0,0-7.752,7.752A18.762,18.762,0,0,0,1842.691,2079.563Z" transform="translate(-1823.87 -2062.391)" fill="#f1ede4"/>
</svg>
