<svg id="Group_370" data-name="Group 370" xmlns="http://www.w3.org/2000/svg" width="77.755" height="71.248" viewBox="0 0 77.755 71.248">
  <g id="Group_369" data-name="Group 369">
    <path id="Path_482" data-name="Path 482" d="M1552.764,2103.019l30.513,32.164a2.668,2.668,0,0,0,3.762.106l30.5-32.2a22.482,22.482,0,0,0,.012-31.761v0a22.477,22.477,0,0,0-31.742,0l-.633.614-.61-.614a22.449,22.449,0,0,0-31.8,31.693Zm28.044-27.928,2.473,2.477a2.663,2.663,0,0,0,3.758,0l2.472-2.472a17.047,17.047,0,0,1,12.106-5h.03a17.152,17.152,0,0,1,12.079,29.3l-.275.271-28.271,29.866-28.614-30.175a17.146,17.146,0,0,1,24.242-24.253Z" transform="translate(-1546.356 -2064.766)" fill="#f1ede4"/>
  </g>
</svg>
