<svg id="Group_366" data-name="Group 366" xmlns="http://www.w3.org/2000/svg" width="51.83" height="80.993" viewBox="0 0 51.83 80.993">
  <g id="Group_365" data-name="Group 365">
    <path id="Path_479" data-name="Path 479" d="M1467.959,2096.272a2.57,2.57,0,0,0,3.972,2.713,12.355,12.355,0,0,0,5.111-7.553c.826-3.252.98-8.707-2.978-16.255a2.648,2.648,0,0,0-2.533-1.41,2.721,2.721,0,0,0-2.013,3.776c2.567,4.9,3.419,9.129,2.537,12.6a7.94,7.94,0,0,1-2.838,4.488A2.582,2.582,0,0,0,1467.959,2096.272Z" transform="translate(-1437.376 -2032.964)" fill="#f1ede4"/>
    <path id="Path_480" data-name="Path 480" d="M1483.438,2064.281q-3.341,6.168-6.694,12.351-5.026,9.271-10.037,18.54l-.633,1.372c-2.171,4.662-5.141,11.039-6.072,18.287a25.4,25.4,0,0,0,6.109,20.443,25.765,25.765,0,0,0,19.256,8.654H1486a25.756,25.756,0,0,0,19.255-8.654,25.4,25.4,0,0,0,6.11-20.443c-.927-7.24-3.9-13.621-6.064-18.275l-.648-1.4q-6.5-12.025-13.056-24.114l-3.663-6.757a2.667,2.667,0,0,0-2.57-1.331A2.607,2.607,0,0,0,1483.438,2064.281Zm1.948,7.191.3-.558,4.47,8.257q4.942,9.136,9.871,18.272l.486,1.051c2.2,4.757,4.941,10.678,5.751,16.98a20.106,20.106,0,0,1-20.228,23.307h-.705a20.106,20.106,0,0,1-20.224-23.307c.81-6.3,3.55-12.227,5.751-16.983l.475-1.029Q1478.357,2084.448,1485.386,2071.472Z" transform="translate(-1459.77 -2062.934)" fill="#f1ede4"/>
  </g>
</svg>
